<svg version="1.1" width="200px" height="200px" viewBox="-28.461 -6.597 200 200" baseProfile="full" xmlns="http://www.w3.org/2000/svg" xmlns:xlink="http://www.w3.org/1999/xlink" xmlns:ev="http://www.w3.org/2001/xml-events">
<path fill-opacity="0.5" d="M121.148,97.537c-0.186-22.54,18.395-33.376,19.281-33.896c-10.473-15.33-26.804-17.435-32.637-17.675
	c-13.862-1.403-27.049,8.17-34.082,8.17c-7.037,0-17.891-7.971-29.404-7.751c-15.131,0.207-29.057,8.791-36.851,22.32
	c-15.71,27.248-4.015,67.628,11.289,89.758c7.477,10.82,16.403,22.976,28.123,22.536c11.297-0.439,15.553-7.295,29.205-7.295
	c13.622,0,17.468,7.295,29.396,7.075c12.13-0.22,19.839-11.04,27.261-21.894c8.588-12.553,12.079-24.708,12.324-25.342
	C144.783,133.467,121.386,124.498,121.148,97.537z"/>
<path fill-opacity="0.5" d="M98.715,31.338c6.222-7.54,10.423-18.021,9.265-28.453c-8.96,0.363-19.806,5.972-26.247,13.512
	c-5.765,6.665-10.811,17.337-9.441,27.561C82.282,44.719,92.502,38.87,98.715,31.338z"/>
<linearGradient id="SVGID_1_" gradientUnits="userSpaceOnUse" x1="542.8867" y1="-521.0786" x2="542.8867" y2="-656.2632" gradientTransform="matrix(1 0 0 -1 -470.3594 -478.1387)">
	<stop  offset="0" style="stop-color:#F3F4F5"/>
	<stop  offset="0.3145" style="stop-color:#E6E7E8"/>
	<stop  offset="0.9005" style="stop-color:#C5C4C4"/>
	<stop  offset="0.9939" style="stop-color:#BFBEBE"/>
</linearGradient>
<path fill="url(#SVGID_1_)" d="M121.148,94.648c-0.186-22.536,18.395-33.373,19.281-33.893
	c-10.473-15.33-26.804-17.435-32.637-17.675c-13.862-1.403-27.049,8.17-34.082,8.17c-7.037,0-17.891-7.971-29.404-7.751
	C29.176,43.706,15.25,52.29,7.457,65.819c-15.71,27.249-4.015,67.628,11.289,89.758c7.477,10.819,16.403,22.975,28.123,22.535
	c11.297-0.439,15.553-7.295,29.205-7.295c13.622,0,17.468,7.295,29.396,7.075c12.13-0.22,19.839-11.039,27.261-21.893
	c8.588-12.553,12.079-24.708,12.324-25.343C144.783,130.581,121.386,121.613,121.148,94.648z"/>
<path fill="#F6F7F7" d="M98.715,28.453c6.222-7.54,10.423-18.021,9.265-28.453c-8.96,0.363-19.806,5.972-26.247,13.512
	c-5.765,6.665-10.811,17.337-9.441,27.561C82.282,41.834,92.502,35.984,98.715,28.453z"/>
<path fill="#BFBEBE" d="M46.852,178.138c11.293-0.439,15.554-7.295,29.204-7.295c13.623,0,17.469,7.295,29.396,7.067
	c12.13-0.212,19.839-11.031,27.261-21.885c3.762-5.486,6.56-10.913,8.486-15.334c-6.56-0.102-13.88-0.178-19.695-0.178
	c-14.319,0-20-2.823-46.926-2.823c-26.965,0-31.961,3.618-45.262,4.615c-6.103,0.465-12.692,0.499-18.039,0.397
	c2.299,4.726,4.818,9.07,7.459,12.874C26.213,166.414,35.14,178.586,46.852,178.138z"/>
</svg>
